<svg xmlns="http://www.w3.org/2000/svg" viewBox="0 0 776.96 773.96"><defs><style>.cls-1{fill:none;stroke:#e91c24;stroke-miterlimit:10;stroke-width:20px;}.cls-2{fill:blue;}.cls-3{fill:#fff;}</style></defs><title>G-Logo_Bad_News_Gears_2018</title><g id="Red_White_Blue" data-name="Red White &amp; Blue"><path id="Red_Outline" data-name="Red Outline" class="cls-1" d="M31.89,336.39c2.17-6.27,1.45-12.94,2.76-19.36,2-9.77,4.81-13.25,14.58-15.1C70,298,90.77,294.27,111.57,290.6c5.86-1,9.48-4.25,11.61-9.66,2.25-5.71,4.48-11.45,7.17-17,3.06-6.28,2.26-11.7-1.93-17.14-12.08-15.71-24-31.53-36-47.33-6.79-9-7-13.35,0-22.25q17.89-22.77,36.3-45.16c6.62-8.09,11.68-9.16,21.59-5.1,18.44,7.55,36.91,15,55.21,22.91,7.54,3.25,14,2.92,20.31-2.52,3.26-2.81,7.13-4.89,10.64-7.42,4.25-3.06,6.06-7.14,5.62-12.51-1.68-20.4-3.15-40.81-4.73-61.22-.8-10.47,2-15.09,11.9-18.5Q278.08,37.89,307,28.4c9.44-3.12,13.88-1.66,19.67,6.58,11.48,16.33,23,32.62,34.08,49.25,4.89,7.38,10.83,9.39,19.59,9.71,13.1.46,19.51-5.69,24.67-16.56,7.26-15.28,15.8-30,23.65-45,1.63-3.12,4.37-5.21,6.28-8h24c8.95,2,17.92,3.95,26.86,6,7.77,1.81,15.53,3.64,23.24,5.67,10.3,2.73,13.75,7.68,14.16,18.2.84,21.28.91,42.59,2.53,63.84a10.89,10.89,0,0,0,5.21,9.07c.14.09.29.16.44.25,19.38,11.64,16.59,10.69,33.58,1.34,15-8.25,29.89-16.65,44.86-24.93,10.82-6,15.2-5.39,23.79,3.33q21.56,21.9,43,43.95c6.16,6.32,6.94,11.87,2.3,19.87q-14.27,24.57-28.92,48.91c-4.23,7-7.71,13.68-2.51,21.71,1.78,2.74-1.33,2.9-2.69,3.5-16.11,7.16-32.26,14.21-48.41,21.29-6.24,2.73-12.71,5.07-18.66,8.33-4.73,2.59-6.61,1-9.17-3A192.68,192.68,0,0,0,536.32,233c-40.64-37.57-88.37-56.84-144-56.69-95.71.25-179.94,66.68-201.9,159.73A209.35,209.35,0,0,0,356.55,590.42c84.06,15.57,171.66-24.16,215.11-97.58.33-.55.6-1.14,1.27-2.43h-5.57q-85.25,0-170.47.1c-4.17,0-5.56-.68-5.53-5.29.25-32.32.19-64.65.05-97,0-3.73.7-5,4.79-5,57.16.16,114.33-.62,171.47.36,39.29.67,78.58,0,117.85,1,.62,0,1.24.05,2.43.11-6.6,9-4.22,19.12-5,28.68-.34,4.54,3.54,7.29,6.92,9.8q24.66,18.28,49.36,36.54c9.58,7.11,10.84,11.41,6.73,22.71q-9.53,26.2-19.14,52.39c-4.35,11.82-8.08,14.09-20.65,12.75-18.37-2-36.77-3.69-55.08-6.07-8.89-1.15-15.56.71-20.11,9a83.83,83.83,0,0,1-8.46,11.73c-4,4.92-4.41,10-2.15,15.83,7.07,18.26,13.94,36.61,20.87,54.92.82,2.18,1.66,4.36,2.31,6.58,1.88,6.4.45,12-4.87,16.07-16.36,12.58-32.75,25.13-49.31,37.46-6,4.46-11.65,3.91-18.26-1.34-14.6-11.6-29.34-23.06-43.49-35.18-8.14-7-15.94-9.36-25.81-3.93-5,2.78-10.74,4.41-16.23,6.3s-8.44,5.57-9.58,11.09c-4,19.54-8.2,39.06-12.19,58.6-1.28,6.29-3.11,12.13-9,15.75H409.64c.36-2.51,6-.87,6.87-1.44,9.79-.65,19.6-1.06,29.4-1.59,9.22-.51,11.57-2.35,13.54-11.49,4.2-19.52,8.45-39,12.22-58.65,1.65-8.59,5.84-14.13,14.25-16.78A118.27,118.27,0,0,0,502.67,648c9.25-4.53,17.26-2.94,25,3.39,14.42,11.83,29,23.51,43.48,35.23,8.8,7.11,10.94,7.17,20,.31q20.93-15.82,41.76-31.75c8.37-6.42,9.07-8.89,5.37-18.74-7-18.53-13.89-37.07-21.15-55.49-3.15-8-2.92-15.09,2.75-21.92a149.71,149.71,0,0,0,10-13.72c4.35-6.65,10.37-8.85,18-7.95,13.4,1.57,26.81,3,40.22,4.4,7.11.77,14.22,1.62,21.35,2.23s9.87-.88,12.36-7.5q11.1-29.4,21.67-59c2-5.7.5-9.13-5.46-13.57Q715,446.75,691.83,429.73c-.27-.2-.54-.4-.82-.57-9.73-5.91-15.33-13.78-13.26-25.89.7-4,0-8.32.16-12.48.11-2.51-.49-3.76-3.26-3.41a35.36,35.36,0,0,1-4.49,0q-134.74,0-269.48-.1c-4.22,0-5.56.78-5.52,5.34q.36,44.25,0,88.49c0,4.65,1.43,5.31,5.57,5.3q85-.19,170,0c1.87,0,4.25-1.3,5.6,1.69,1.17,2.58.28,4.43-1,6.46-42.15,65.6-101.74,101.17-180.07,102.79-59.14,1.23-109.81-20.65-151.55-62-42.4-41.95-63.53-93.55-62.68-153.26,1.4-98.49,67.51-182.61,163.63-204,86.12-19.14,158.66,7,215.47,75a182.55,182.55,0,0,1,11.64,16.21c1.44,2.16,2.55,2.38,4.82,1.37Q608,256.84,639.6,243.12c2-.87,2.86-1.75,2.07-4.07-2.28-6.69-.37-12.71,3.12-18.53q15-25.07,29.79-50.25c4.83-8.23,4.26-11-2.55-18-13.77-14-27.44-28.15-41.22-42.17-7.43-7.56-9.73-7.89-19.18-2.67-17.19,9.48-34.42,18.89-51.42,28.7-7.76,4.48-15,4.79-22.46-.16-2.07-1.37-4.28-2.56-6.49-3.73-6.44-3.42-9.64-8.47-9.82-16C521,95.64,519.92,75,519.21,54.4c-.3-8.61-3.11-12.57-11.46-14.55-18.29-4.32-36.44-9.34-55.13-11.82-1.32-.17-2.65-.28-4-.51-8.73-1.54-14.22,1.7-18.23,9.92-7.94,16.29-16.88,32.09-25.31,48.14C401,93.35,394.88,96.49,386,97.71c-15.71,2.18-25.1-4.11-32.93-17.25-9-15.12-19.94-29.1-30.15-43.49-4.62-6.52-7.25-7.26-14.89-4.7C289,38.65,269.88,45,250.84,51.51c-8.28,2.82-10.15,5.9-9.48,14.55,1.57,20.24,3,40.49,4.77,60.72.64,7.41-2,12.95-8,17.08-4.26,2.92-8.47,5.9-12.7,8.86-6.53,4.58-13.31,4.22-20.38,1.27q-27.63-11.55-55.33-22.9c-9.62-4-12.38-3.18-18.89,4.9-11.69,14.54-23.46,29-35,43.63-5.91,7.47-5.76,9.91,0,17.59,11.76,15.53,23.41,31.16,35.38,46.53,5.51,7.08,6.61,14.16,2.7,22.27-2.6,5.39-4.71,11-6.95,16.57-2.79,6.91-7.72,10.83-15.18,12.12-19.84,3.42-39.64,7.11-59.46,10.71-10.39,1.89-12.64,3.68-13.91,13.87-2.58,20.67-3.22,41.47-3.5,62.28,0,4.29,3.29,5,6.15,6.08C59.6,394.52,78.11,401.58,96.83,408c8.63,3,13.79,7.87,14.94,17.18.94,7.59,2.72,15.07,4.1,22.6s-.71,13.32-6.65,18.61c-15.53,13.85-30.62,28.2-45.77,42.47-5.15,4.85-5.7,8.44-2.47,14.76q12.74,24.9,25.7,49.66c3.69,7,6.81,8.42,14.65,6.67,19.33-4.3,38.67-8.54,57.94-13.11,8.64-2.05,15.54-.29,21.51,6.54,4.92,5.62,10.5,10.69,15.87,15.91,6.34,6.17,8.36,13.59,5.89,21.93-5.63,19-9.81,38.37-14.88,57.51-2.28,8.62-1.22,11.65,6.52,16.12,16.14,9.32,32.39,18.43,48.66,27.51,4.93,2.75,9.33,1.9,14.4-3,4.89-4.75,9.28-10,14.05-14.88,9.91-10.12,19.94-20.11,29.88-30.19,5.36-5.43,11.72-6.4,18.87-4.68,7.92,1.91,15.86,3.77,23.85,5.35,7.8,1.54,12.72,6,15.17,13.48,5.81,17.69,11.89,35.3,17.39,53.08,4.11,15.7,34,9.29,33.19,12.87H377.89c-9-19.06-14.19-39.45-20.7-59.36-3.26-10-8.12-16.09-19.05-17.23-7.05-.74-14-2.9-20.91-4.6-5.25-1.29-9.54.3-13.1,4-13.6,14.18-28.27,27.3-41.12,42.21a28.24,28.24,0,0,1-7.21,6.11c-5,2.91-10,3.22-15.15.32-16.2-9.15-32.46-18.2-48.59-27.45-9-5.19-11-10.16-8.33-20.44,5-19,9-38.16,14.74-56.9,2.33-7.58.67-14.12-5.25-19.44a197.55,197.55,0,0,1-16.92-17c-4.44-5.08-9.9-5.34-16-3.95q-29.15,6.66-58.35,13.11c-9.7,2.15-14.4.09-18.9-8.51q-12.83-24.48-25.36-49.1c-4.58-9-3.44-14.49,4-21.34q23.24-21.56,46.49-43.12c3.18-2.93,4.72-6.4,4-10.7-1.77-10-3.47-20-5.46-29.91-1-5.26-5.49-7.13-10-8.77-18.07-6.62-36.1-13.33-54.2-19.85a62.9,62.9,0,0,1-10.6-5.15Z"/><path class="cls-2" d="M388.07,736.89a20,20,0,0,1-4.46-7.58c-3.8-12.32-7.94-24.71-11.94-36.69q-2.76-8.26-5.49-16.53c-3.3-10.06-10.51-16.45-20.84-18.49-8.2-1.62-16.45-3.58-23.54-5.28a33.73,33.73,0,0,0-7.81-1A24.72,24.72,0,0,0,295.83,659q-6,6.12-12.09,12.2c-5.85,5.89-11.89,12-17.81,18-2.14,2.19-4.21,4.45-6.2,6.63-2.62,2.87-5.09,5.57-7.72,8.12-1.58,1.53-3,2.45-3.82,2.45a4.15,4.15,0,0,1-1.69-.6c-15.57-8.69-32.14-18-48.57-27.45-3.26-1.89-3.75-2.7-3.8-2.79s-.23-1.1.78-4.92c2-7.35,3.79-14.83,5.57-22.07,2.86-11.62,5.82-23.64,9.25-35.23,3.28-11.08.56-21.26-7.85-29.44l-3.76-3.61c-4.17-4-8.12-7.77-11.69-11.86-5.75-6.57-12.75-9.91-20.81-9.91a35.17,35.17,0,0,0-8.09,1c-16.06,3.81-32.48,7.46-48.35,11l-9.48,2.11a17.21,17.21,0,0,1-3.51.51,2.26,2.26,0,0,1-.65-.06s-.73-.45-2.21-3.28c-8.89-17-17.52-33.65-25.67-49.59-1.73-3.38-1.73-3.38.94-5.89l6.05-5.71c12.87-12.14,26.18-24.69,39.56-36.62,7.94-7.07,10.89-15.43,9-25.56-.46-2.52-1-5-1.46-7.48-1-5.07-2-9.85-2.58-14.69-1.43-11.58-7.95-19.22-19.94-23.35-14.61-5-29.37-10.53-43.64-15.86l-12-4.46-.95-.35-.29-.1c.28-19.31.91-39.86,3.42-60,.6-4.77,1.24-5.52,1.31-5.59.31-.3,1.56-.93,6.51-1.83l14.89-2.72c14.58-2.66,29.66-5.42,44.5-8,10.06-1.74,17.08-7.36,20.85-16.71.49-1.2,1-2.41,1.45-3.63,1.74-4.36,3.38-8.49,5.3-12.48,5.06-10.49,3.87-20.63-3.54-30.14-8.84-11.35-17.67-23.06-26.2-34.38l-9.11-12.07a20.59,20.59,0,0,1-2.86-4.39,18.55,18.55,0,0,1,2.71-4c8.17-10.32,16.58-20.74,24.72-30.83l10.29-12.76c3.21-4,4.2-4.42,4.48-4.42,1,0,2.87.59,5.71,1.76,16.47,6.77,35.93,14.78,55.29,22.88a32.51,32.51,0,0,0,12.66,2.78,25.59,25.59,0,0,0,14.92-4.83l3.15-2.21c3.1-2.18,6.31-4.43,9.48-6.6,8.22-5.62,12.12-13.89,11.27-23.91-1.26-14.79-2.41-29.85-3.53-44.42q-.62-8.11-1.24-16.24c-.41-5.23-.41-5.23,4.42-6.88,16.26-5.54,32.85-11.09,48.88-16.45l8.3-2.77a15.85,15.85,0,0,1,4-1,14.55,14.55,0,0,1,2.44,2.91c2.78,3.92,5.65,7.86,8.43,11.68,7.37,10.11,15,20.57,21.39,31.31,5.46,9.16,14.88,21.34,33.55,21.34a49.79,49.79,0,0,0,6.85-.5c7.53-1,18.27-3.84,24.7-16.07,2.83-5.4,5.78-10.87,8.63-16.16,5.64-10.46,11.46-21.27,16.78-32.18,2.74-5.62,5.13-6.08,7.53-6.08a15.58,15.58,0,0,1,2.66.26c1.07.18,2.1.3,3,.41.42,0,.85.09,1.27.15,14.24,1.88,28.58,5.4,42.46,8.8,4,1,7.94,1.94,11.92,2.88,4.58,1.08,5.49,1.79,5.69,7.51q.41,11.49.88,23c.51,12.73,1,25.89,1.35,38.81.25,10.18,4.89,17.75,13.81,22.47,2.07,1.1,4.08,2.19,5.86,3.37a27.35,27.35,0,0,0,15.18,4.86A30,30,0,0,0,564,142.68c14.34-8.27,29.11-16.41,43.4-24.28l7.89-4.36c3.81-2.09,5.19-2.53,5.68-2.58.45.19,1.61,1,4.53,4q11.06,11.24,22,22.55,9.57,9.81,19.16,19.61c3.07,3.13,3.52,4.15,3.59,4.4,0,.07-.14,1.08-2.15,4.51-9.1,15.53-18.83,31.94-29.76,50.19-4.39,7.33-6,14.21-4.79,20.9-22.57,9.84-40.49,17.7-57.29,25.14a168.51,168.51,0,0,0-10.43-14.3c-46.45-55.63-103-83.84-168-83.84A254,254,0,0,0,343,170.85c-98.34,21.86-168,108.71-169.5,211.2-.88,61.81,21,115.2,64.9,158.69,43,42.59,94.21,64.18,152.13,64.18,1.61,0,3.23,0,4.85,0,79.34-1.65,142-37.39,186.23-106.24,1.23-1.93,4.52-7,1.54-13.61a10.29,10.29,0,0,0-9.64-6.37,16.06,16.06,0,0,0-2.55.23l-.37.05q-42.81-.06-85.63-.07c-29.51,0-56.44,0-82.27.09.22-27.46.22-55.74,0-84.12,61.56.08,123.32.09,180.94.09h86.83c0,.36,0,.71,0,1.06a30.89,30.89,0,0,1-.12,6c-2.41,14.07,3.23,25.36,16.76,33.57l.19.14,12.84,9.49c11,8.09,22.29,16.45,33.39,24.71,3.7,2.75,3.57,3.1,2.89,5-7.79,21.67-14.86,40.94-21.63,58.9a9.75,9.75,0,0,1-1.31,2.64,6.42,6.42,0,0,1-1.47.12c-.55,0-1.18,0-1.93-.09-5.26-.45-10.64-1-15.84-1.63l-5.35-.58-10.07-1.08c-9.87-1.06-20.07-2.15-30.07-3.32a34.8,34.8,0,0,0-4-.25c-9,0-16.16,3.88-21.17,11.54a142.18,142.18,0,0,1-9.47,13c-7,8.43-8.34,18.35-4,29.46,6.18,15.7,12.23,31.79,18.08,47.34l3,8c1.66,4.42,1.71,5.64,1.65,6s-.8,1.29-4.56,4.17c-15.26,11.7-30.32,23.1-41.73,31.72-3.41,2.59-4.86,3.37-5.46,3.55-.6-.19-2-1-5.32-3.7l-9.29-7.5c-11.22-9-22.82-18.41-34.14-27.7-6.21-5.09-12.77-7.68-19.49-7.68a30.71,30.71,0,0,0-13.54,3.36,111.23,111.23,0,0,1-15.7,6C472.9,650.68,466.56,658,464.3,669.8c-3.48,18.1-7.44,36.47-11.27,54.23l-.91,4.26c-.84,3.9-1.45,4.71-1.56,4.84s-1,.52-5.06.74l-10.06.52c-6.18.31-12.56.63-18.88,1a12.31,12.31,0,0,0-2-.18,9.07,9.07,0,0,0-5.31,1.64Z"/><path class="cls-3" d="M445,42.16a8.58,8.58,0,0,1,1.07.13c1.29.23,2.45.36,3.46.48l1.13.13c13.84,1.84,27.35,5.15,41.66,8.65,3.88,1,7.9,1.93,11.88,2.88,0,.15,0,.32,0,.49.26,7.7.58,15.5.88,23,.51,12.69,1,25.8,1.35,38.65s6.46,22.91,17.79,28.92c1.9,1,3.73,2,5.24,3a34.64,34.64,0,0,0,19.31,6.11,37.71,37.71,0,0,0,18.92-5.47c14.25-8.22,29-16.33,43.21-24.17l8-4.39.77-.42.46.47c7.36,7.49,14.82,15.14,22,22.53,6.28,6.44,12.77,13.1,19.18,19.63l.15.16c-9,15.42-18.71,31.73-29.55,49.83-4.12,6.88-6.2,13.5-6.27,20-17.62,7.68-32.79,14.34-46.7,20.48-2.26-3.23-4.7-6.53-7.36-9.72-47.93-57.41-106.4-86.52-173.8-86.53a260.74,260.74,0,0,0-56.43,6.46C239.61,186.15,167.49,276,166,381.94c-.91,63.93,21.67,119.16,67.12,164.13,44.49,44,97.45,66.35,157.41,66.35,1.65,0,3.34,0,5,0,82-1.7,146.71-38.6,192.38-109.68,4.46-6.95,5.16-13.94,2.07-20.76a17.75,17.75,0,0,0-16.48-10.78,22.7,22.7,0,0,0-3.46.28c-32.38-.05-59.46-.07-85.14-.07-26.63,0-51.17,0-74.66.07.15-22.64.15-45.81,0-69.1,58.72.08,117.38.09,172.23.09h80.25c-1.57,11.76,1,27.54,20.18,39.36h0l12.87,9.5c10.67,7.88,21.7,16,32.52,24.07-7,19.51-13.46,37.06-19.64,53.48-4.53-.41-9.15-.93-13.64-1.42l-5.31-.59-10.12-1.08c-9.83-1.06-20-2.14-30-3.31a41,41,0,0,0-4.88-.3c-11.56,0-21,5.17-27.44,14.93a133.89,133.89,0,0,1-9,12.36c-6.11,7.35-12,19.74-5.17,37,6.17,15.66,12.21,31.74,18.06,47.3l3,8c.13.34.24.65.34.93-.24.19-.5.4-.8.62-12,9.18-24.83,19-41.68,31.69l-.79.6-.76-.61-9.24-7.45c-11.22-9.06-22.83-18.42-34.15-27.71-7.58-6.22-15.74-9.38-24.24-9.38a38.1,38.1,0,0,0-16.84,4.13,104.59,104.59,0,0,1-14.65,5.61c-9.25,2.92-21,10.18-24.48,28.26s-7.43,36.41-11.26,54.17l-.83,3.83c-3.26.18-6.53.34-9.79.51-6,.29-12.11.6-18.23,1a20.18,20.18,0,0,0-2.29-.14,16.76,16.76,0,0,0-7.32,1.64H391.79a10.87,10.87,0,0,1-1-2.3c-3.83-12.39-8-24.82-12-36.84-1.81-5.41-3.68-11-5.48-16.5-4.14-12.6-13.56-21-26.52-23.51-8.06-1.59-16.22-3.53-23.24-5.21a41.06,41.06,0,0,0-9.56-1.19,32.39,32.39,0,0,0-23.49,9.91q-6,6.12-12.1,12.2c-5.85,5.89-11.9,12-17.82,18-2.24,2.29-4.35,4.59-6.39,6.82-2.27,2.49-4.43,4.85-6.63,7-14.6-8.16-30-16.81-45.3-25.62,1.93-7.3,3.75-14.68,5.5-21.82,2.84-11.54,5.78-23.47,9.16-34.9,4.06-13.73.58-26.85-9.82-37l-3.8-3.65c-4.05-3.88-7.88-7.54-11.23-11.38-7.23-8.27-16.13-12.47-26.45-12.47a42.93,42.93,0,0,0-9.82,1.21c-16,3.8-32.39,7.44-48.24,11l-8.26,1.84C91,549.12,82.85,533.45,75.17,518.45l4.65-4.38c12.82-12.1,26.08-24.61,39.38-36.46,9.77-8.71,13.72-19.95,11.43-32.51-.47-2.58-1-5.13-1.48-7.6-1-4.93-1.93-9.58-2.49-14.14-1.79-14.5-10.19-24.44-25-29.52-14.51-5-29.21-10.48-43.43-15.79L50,375c.32-17.51,1-35.9,3.27-53.82,0-.23.06-.45.09-.65l1.63-.32,14.91-2.72c14.56-2.66,29.61-5.42,44.41-8,12.62-2.18,21.8-9.54,26.54-21.29.49-1.22,1-2.44,1.46-3.67,1.69-4.24,3.28-8.24,5.09-12,6.31-13.09,4.8-26.23-4.38-38-8.81-11.31-17.62-23-26.14-34.3L108,188.39c8-10.12,16.28-20.36,24.27-30.26l10.27-12.74c.23-.28.44-.54.64-.77l.86.34c16.42,6.75,35.83,14.75,55.24,22.87a39.9,39.9,0,0,0,15.56,3.36A33,33,0,0,0,234,165l3.12-2.19c3.09-2.18,6.3-4.43,9.44-6.57,10.59-7.25,15.61-17.88,14.51-30.74-1.26-14.75-2.41-29.79-3.52-44.33q-.58-7.86-1.2-15.71c16-5.46,32.34-10.92,48.13-16.19l7.12-2.38c2.53,3.54,5.1,7.07,7.59,10.5,7.61,10.44,14.79,20.3,21,30.74,10,16.82,23.12,25,40,25a56.89,56.89,0,0,0,7.88-.57c14.36-2,24.28-8.53,30.31-20,2.81-5.36,5.75-10.82,8.6-16.1,5.67-10.52,11.53-21.39,16.91-32.45A12.59,12.59,0,0,1,445,42.16m-.29-15c-6.49,0-10.9,3.39-14.27,10.29-7.94,16.29-16.88,32.09-25.31,48.14C401,93.35,394.88,96.49,386,97.71a41.38,41.38,0,0,1-5.82.43c-12.3,0-20.3-6.25-27.11-17.68-9-15.12-19.94-29.1-30.15-43.49-3-4.28-5.21-6.07-8.51-6.07a21,21,0,0,0-6.38,1.37C289,38.65,269.88,45,250.84,51.51c-8.28,2.82-10.15,5.9-9.48,14.55,1.57,20.24,3,40.49,4.77,60.72.64,7.41-2,12.95-8,17.08-4.26,2.92-8.47,5.9-12.7,8.86a18.06,18.06,0,0,1-10.61,3.47A25.37,25.37,0,0,1,205,154q-27.63-11.55-55.33-22.9c-3.65-1.5-6.31-2.32-8.56-2.32-3.69,0-6.29,2.2-10.33,7.22-11.69,14.54-23.46,29-35,43.63-5.91,7.47-5.76,9.91,0,17.59,11.76,15.53,23.41,31.16,35.38,46.53,5.51,7.08,6.61,14.16,2.7,22.27-2.6,5.39-4.71,11-6.95,16.57-2.79,6.91-7.72,10.83-15.18,12.12-19.84,3.42-39.64,7.11-59.46,10.71-10.39,1.89-12.64,3.68-13.91,13.87-2.58,20.67-3.22,41.47-3.5,62.28,0,4.29,3.29,5,6.15,6.08C59.6,394.52,78.11,401.58,96.83,408c8.63,3,13.79,7.87,14.94,17.18.94,7.59,2.72,15.07,4.1,22.6s-.71,13.32-6.65,18.61c-15.53,13.85-30.62,28.2-45.77,42.47-5.15,4.85-5.7,8.44-2.47,14.76q12.74,24.9,25.7,49.66c2.76,5.26,5.19,7.36,9.51,7.36a24.34,24.34,0,0,0,5.14-.69c19.33-4.3,38.67-8.54,57.94-13.11a27.5,27.5,0,0,1,6.35-.81c5.79,0,10.73,2.28,15.16,7.35,4.92,5.62,10.5,10.69,15.87,15.91,6.34,6.17,8.36,13.59,5.89,21.93-5.63,19-9.81,38.37-14.88,57.51-2.28,8.62-1.22,11.65,6.52,16.12,16.14,9.32,32.39,18.43,48.66,27.51a11,11,0,0,0,5.35,1.55c2.95,0,5.87-1.49,9.05-4.57,4.89-4.75,9.28-10,14.05-14.88,9.91-10.12,19.94-20.11,29.88-30.19A17.27,17.27,0,0,1,314,658.84a26.06,26.06,0,0,1,6.05.77c7.92,1.91,15.86,3.77,23.85,5.35,7.8,1.54,12.72,6,15.17,13.48,5.81,17.69,11.89,35.3,17.39,53.08,1.64,5.32,4.66,9.22,8.44,12.87h28c.19-1.34.88-1.64,1.65-1.64s1.32.2,1.85.2h.12c9.79-.65,19.6-1.06,29.4-1.59,9.22-.51,11.57-2.35,13.54-11.49,4.2-19.52,8.45-39,12.22-58.65,1.65-8.59,5.84-14.13,14.25-16.78A118.27,118.27,0,0,0,502.67,648a23.22,23.22,0,0,1,10.24-2.59c5.17,0,10,2.1,14.73,6,14.42,11.83,29,23.51,43.48,35.23,4.46,3.6,7.2,5.39,10,5.39s5.53-1.7,10-5.08q20.93-15.82,41.76-31.75c8.37-6.42,9.07-8.89,5.37-18.74-7-18.53-13.89-37.07-21.15-55.49-3.15-8-2.92-15.09,2.75-21.92a149.71,149.71,0,0,0,10-13.72c3.74-5.72,8.71-8.15,14.89-8.15a26.06,26.06,0,0,1,3.13.2c13.4,1.57,26.81,3,40.22,4.4,7.11.77,14.22,1.62,21.35,2.23.93.08,1.78.12,2.57.12,5.21,0,7.63-1.87,9.79-7.62q11.1-29.4,21.67-59c2-5.7.5-9.13-5.46-13.57Q715,446.75,691.83,429.73c-.27-.2-.54-.4-.82-.57-9.73-5.91-15.33-13.78-13.26-25.89.7-4,0-8.32.16-12.48.1-2.23-.37-3.47-2.41-3.47a6.77,6.77,0,0,0-.85.06,11.84,11.84,0,0,1-1.68.1c-.94,0-1.88-.06-2.81-.06h-87.7q-90.89,0-181.78-.1h0c-4.19,0-5.52.8-5.48,5.34q.36,44.25,0,88.49c0,4.61,1.41,5.3,5.48,5.3h.09q42.09-.09,84.17-.09,42.9,0,85.81.07h0c.87,0,1.84-.28,2.78-.28a2.84,2.84,0,0,1,2.81,2c1.17,2.58.28,4.43-1,6.46-42.15,65.6-101.74,101.17-180.07,102.79-1.58,0-3.14,0-4.7,0-57.13,0-106.23-21.8-146.85-62-42.4-41.95-63.53-93.55-62.68-153.26,1.4-98.49,67.51-182.61,163.63-204a244.88,244.88,0,0,1,53.18-6.1c63.13,0,117.59,27.6,162.29,81.14a182.55,182.55,0,0,1,11.64,16.21c.9,1.36,1.68,1.95,2.7,1.95a5.47,5.47,0,0,0,2.12-.58Q608,256.84,639.6,243.12c2-.87,2.86-1.75,2.07-4.07-2.28-6.69-.37-12.71,3.12-18.53q15-25.07,29.79-50.25c4.83-8.23,4.26-11-2.55-18-13.77-14-27.44-28.15-41.22-42.17-4.16-4.23-6.7-6.19-9.8-6.19-2.44,0-5.21,1.22-9.38,3.52-17.19,9.48-34.42,18.89-51.42,28.7a22.79,22.79,0,0,1-11.42,3.46,19.71,19.71,0,0,1-11-3.62c-2.07-1.37-4.28-2.56-6.49-3.73-6.44-3.42-9.64-8.47-9.82-16C521,95.64,519.92,75,519.21,54.4c-.3-8.61-3.11-12.57-11.46-14.55-18.29-4.32-36.44-9.34-55.13-11.82-1.32-.17-2.65-.28-4-.51a22.55,22.55,0,0,0-4-.37Z"/></g></svg>